{"accessors":[{"name":"Q_Front_printable003_1_positions","componentType":5126,"count":700,"min":[-8.253100395202637,-55.716400146484375,-73.31620025634766],"max":[95.47000122070312,55.716400146484375,-45.26390075683594],"type":"VEC3","bufferView":0,"byteOffset":0},{"name":"Q_Front_printable003_1_normals","componentType":5126,"count":700,"min":[-1,-1,-1],"max":[1,1,1],"type":"VEC3","bufferView":0,"byteOffset":90732},{"name":"Q_Front_printable003_1_texcoords","componentType":5126,"count":700,"min":[0,0],"max":[1,1],"type":"VEC2","bufferView":1,"byteOffset":0},{"name":"Q_Front_printable003_1_0_indices","componentType":5123,"count":3456,"min":[0],"max":[699],"type":"SCALAR","bufferView":2,"byteOffset":0},{"name":"Q_tail_printable001_1_positions","componentType":5126,"count":817,"min":[68.18879699707031,-55.56629943847656,-60.02220153808594],"max":[95.65350341796875,-28.723600387573242,-53.193199157714844],"type":"VEC3","bufferView":0,"byteOffset":8400},{"name":"Q_tail_printable001_1_normals","componentType":5126,"count":817,"min":[-0.7807999849319458,-0.9958999752998352,-0.9369999766349792],"max":[1,0.9886999726295471,0.9998999834060669],"type":"VEC3","bufferView":0,"byteOffset":99132},{"name":"Q_tail_printable001_1_texcoords","componentType":5126,"count":817,"min":[0.4375,0.33169999718666077],"max":[1,0.39750000834465027],"type":"VEC2","bufferView":1,"byteOffset":5600},{"name":"Q_tail_printable001_1_0_indices","componentType":5123,"count":4851,"min":[0],"max":[816],"type":"SCALAR","bufferView":2,"byteOffset":6912},{"name":"t_big010_printable003_1_positions","componentType":5126,"count":6044,"min":[-68.86039733886719,-51.55500030517578,-79.6229019165039],"max":[153.8657989501953,54.93109893798828,-59.622798919677734],"type":"VEC3","bufferView":0,"byteOffset":18204},{"name":"t_big010_printable003_1_normals","componentType":5126,"count":6044,"min":[-0.9993000030517578,-0.9979000091552734,-1],"max":[0.9993000030517578,0.9980000257492065,0.9918000102043152],"type":"VEC3","bufferView":0,"byteOffset":108936},{"name":"t_big010_printable003_1_texcoords","componentType":5126,"count":6044,"min":[0,0],"max":[1,1],"type":"VEC2","bufferView":1,"byteOffset":12136},{"name":"t_big010_printable003_1_0_indices","componentType":5123,"count":33984,"min":[0],"max":[6043],"type":"SCALAR","bufferView":2,"byteOffset":16616}],"asset":{"generator":"obj2gltf","version":"2.0"},"buffers":[{"name":"tqt","byteLength":326536,"uri":"data:application/octet-stream;base64,"}],"bufferViews":[{"name":"bufferView_0","buffer":0,"byteLength":181464,"byteOffset":0,"byteStride":12,"target":34962},{"name":"bufferView_1","buffer":0,"byteLength":60488,"byteOffset":181464,"byteStride":8,"target":34962},{"name":"bufferView_2","buffer":0,"byteLength":84584,"byteOffset":241952,"target":34963}],"materials":[{"name":"Material__29","pbrMetallicRoughness":{"baseColorFactor":[0.5059,0.5059,0.5059,1],"metallicFactor":0,"roughnessFactor":0.99},"emissiveFactor":[0,0,0],"alphaMode":"OPAQUE","doubleSided":false},{"name":"Material__31","pbrMetallicRoughness":{"baseColorFactor":[0.0039,0.1216,0.2314,1],"metallicFactor":0,"roughnessFactor":0.99},"emissiveFactor":[0,0,0],"alphaMode":"OPAQUE","doubleSided":false}],"meshes":[{"name":"Q_Front_printable003_1","primitives":[{"attributes":{"POSITION":0,"NORMAL":1,"TEXCOORD_0":2},"indices":3,"material":0,"mode":4}]},{"name":"Q_tail_printable001_1","primitives":[{"attributes":{"POSITION":4,"NORMAL":5,"TEXCOORD_0":6},"indices":7,"material":0,"mode":4}]},{"name":"t_big010_printable003_1","primitives":[{"attributes":{"POSITION":8,"NORMAL":9,"TEXCOORD_0":10},"indices":11,"material":1,"mode":4}]}],"nodes":[{"name":"Q_Front_printable003","mesh":0},{"name":"Q_tail_printable001","mesh":1},{"name":"t_big010_printable003","mesh":2}],"scene":0,"scenes":[{"nodes":[0,1,2]}]}
